<svg id="svg" version="1.1" xmlns="http://www.w3.org/2000/svg" xmlns:xlink="http://www.w3.org/1999/xlink" width="400" height="400" viewBox="0, 0, 400,400"><g id="svgg"><path id="path1" d="M186.600 91.808 C 184.620 92.563,182.640 93.346,182.200 93.550 C 181.760 93.753,180.770 94.146,180.000 94.422 C 179.230 94.699,177.610 95.366,176.400 95.905 C 175.190 96.444,173.300 97.241,172.200 97.675 C 166.264 100.019,146.408 110.446,142.927 113.048 C 142.226 113.572,141.537 114.000,141.396 114.000 C 140.948 114.000,127.943 122.790,124.600 125.352 C 122.840 126.701,120.950 128.100,120.400 128.461 C 119.850 128.821,119.040 129.451,118.600 129.859 C 118.160 130.267,116.270 131.855,114.400 133.387 C 103.433 142.370,103.199 142.688,102.020 150.200 C 101.813 151.520,101.342 154.130,100.974 156.000 C 100.606 157.870,100.170 160.390,100.005 161.600 C 99.840 162.810,99.514 165.150,99.281 166.800 C 96.997 182.977,96.895 211.404,99.064 227.400 C 99.392 229.820,99.814 232.970,100.001 234.400 C 100.397 237.419,101.425 242.679,101.822 243.712 C 102.379 245.164,106.354 242.463,111.200 237.338 C 116.382 231.859,116.000 232.741,116.000 226.240 C 116.000 213.274,119.527 198.785,125.539 187.051 C 128.548 181.179,129.005 180.764,132.763 180.495 C 137.253 180.174,149.533 182.098,152.287 183.554 C 152.679 183.761,155.070 184.595,157.600 185.407 C 160.130 186.219,162.740 187.108,163.400 187.383 C 167.268 188.993,168.880 189.684,171.328 190.779 C 172.828 191.451,174.120 192.000,174.199 192.000 C 174.499 192.000,180.755 194.927,184.140 196.651 C 188.988 199.121,188.800 199.337,188.800 191.289 L 188.800 184.552 182.934 180.381 C 176.826 176.036,173.291 173.255,166.214 167.224 C 160.877 162.676,154.685 155.907,152.099 151.795 C 149.331 147.393,149.141 145.745,151.051 142.719 C 151.573 141.892,152.000 141.123,152.000 141.009 C 152.000 140.699,155.794 135.427,158.627 131.800 C 164.419 124.385,175.265 115.294,182.967 111.400 C 186.581 109.573,187.093 108.921,188.613 104.215 C 190.309 98.961,191.486 90.358,190.500 90.418 C 190.335 90.428,188.580 91.054,186.600 91.808 M209.364 90.859 C 208.982 91.476,209.090 94.131,209.603 96.717 C 210.405 100.766,211.298 104.190,211.654 104.580 C 211.844 104.789,212.015 105.329,212.032 105.780 C 212.115 107.882,213.730 109.674,217.142 111.450 C 225.711 115.910,236.468 125.169,243.013 133.717 C 246.566 138.357,250.400 144.734,250.400 146.003 C 250.400 152.036,236.197 166.737,217.476 180.080 C 210.791 184.846,211.200 184.088,211.200 191.702 C 211.200 199.261,211.066 199.110,215.660 196.709 C 217.497 195.749,219.720 194.673,220.600 194.319 C 221.480 193.964,223.640 193.011,225.400 192.202 C 230.250 189.970,231.099 189.600,231.365 189.600 C 231.499 189.600,232.462 189.219,233.504 188.753 C 237.211 187.098,237.852 186.856,242.400 185.398 C 244.930 184.586,247.288 183.775,247.641 183.595 C 247.994 183.414,249.434 182.995,250.841 182.663 C 252.248 182.331,254.750 181.742,256.400 181.353 C 258.469 180.866,261.120 180.640,264.943 180.624 L 270.486 180.600 271.574 181.902 C 272.661 183.203,276.641 190.952,277.583 193.600 C 277.857 194.370,278.237 195.360,278.427 195.800 C 278.863 196.804,280.948 203.265,281.526 205.400 C 281.962 207.011,282.796 211.757,283.577 217.077 C 283.810 218.659,284.000 222.591,284.000 225.814 C 284.000 231.084,284.081 231.777,284.807 232.699 C 289.245 238.341,296.782 244.953,297.951 244.230 C 298.135 244.116,298.502 242.893,298.765 241.512 C 299.029 240.130,299.415 238.349,299.622 237.554 C 299.830 236.758,300.000 235.390,300.000 234.513 C 300.000 233.637,300.172 232.398,300.381 231.760 C 302.961 223.915,303.183 183.506,300.739 166.800 C 300.530 165.370,300.194 163.030,299.994 161.600 C 299.794 160.170,299.347 157.560,299.000 155.800 C 298.654 154.040,298.210 151.610,298.012 150.400 C 296.657 142.093,297.637 143.412,285.127 133.060 C 268.157 119.017,243.495 103.797,227.750 97.651 C 226.622 97.211,224.912 96.486,223.950 96.039 C 222.314 95.280,214.453 92.182,211.110 90.979 C 210.104 90.617,209.537 90.578,209.364 90.859 M193.766 118.147 C 181.868 122.570,178.928 138.099,188.300 147.019 C 189.893 148.535,189.922 149.013,188.471 149.763 C 183.621 152.271,186.552 162.000,192.157 162.000 C 192.822 162.000,192.982 162.424,193.578 165.773 C 194.132 168.887,194.139 209.001,193.587 215.177 C 193.100 220.622,192.058 230.090,191.757 231.800 C 191.641 232.460,191.297 234.620,190.992 236.600 C 190.687 238.580,190.267 241.280,190.058 242.600 C 188.589 251.908,183.860 264.440,180.639 267.562 C 176.060 272.000,144.451 264.811,133.144 256.760 C 132.557 256.342,131.901 256.000,131.687 256.000 C 131.473 256.000,131.055 255.708,130.759 255.351 C 130.161 254.630,126.750 254.757,123.495 255.621 C 120.131 256.513,117.388 257.335,116.800 257.625 C 116.470 257.789,115.392 258.163,114.404 258.457 C 110.514 259.615,110.540 260.626,114.536 263.707 C 115.891 264.752,118.850 267.045,121.110 268.803 C 123.371 270.561,125.318 272.000,125.438 272.000 C 125.558 272.000,127.128 273.143,128.928 274.541 C 130.728 275.938,133.010 277.603,134.000 278.240 C 134.990 278.877,135.996 279.579,136.236 279.799 C 136.662 280.192,141.442 283.132,148.600 287.406 C 153.668 290.431,171.381 299.235,176.400 301.222 C 178.710 302.137,181.185 303.136,181.900 303.443 C 182.615 303.749,183.785 304.251,184.500 304.558 C 187.309 305.763,199.098 309.600,199.991 309.600 C 200.802 309.600,210.650 306.442,213.915 305.135 C 214.512 304.896,215.360 304.557,215.800 304.382 C 216.240 304.208,217.624 303.600,218.875 303.032 C 220.127 302.465,221.319 302.000,221.525 302.000 C 221.884 302.000,224.783 300.788,228.200 299.208 C 229.080 298.802,230.697 298.070,231.794 297.582 C 236.856 295.329,246.940 290.085,251.075 287.554 C 252.471 286.699,253.706 286.000,253.818 286.000 C 254.426 286.000,270.272 275.521,272.414 273.702 C 272.736 273.429,274.639 271.989,276.642 270.502 C 281.052 267.231,288.245 261.375,288.641 260.734 C 289.286 259.690,287.749 259.035,276.600 255.602 C 273.148 254.539,270.267 254.647,268.388 255.909 C 257.190 263.434,239.340 268.719,224.920 268.781 L 220.440 268.800 219.031 267.100 C 216.492 264.035,213.211 256.652,211.965 251.200 C 211.789 250.430,211.302 248.360,210.883 246.600 C 209.385 240.317,207.558 227.990,206.674 218.200 C 206.088 211.718,206.048 167.029,206.625 164.405 C 206.991 162.742,207.187 162.529,209.270 161.531 C 215.152 158.711,216.027 152.388,210.954 149.363 C 210.285 148.964,210.416 148.703,212.450 146.363 C 221.010 136.516,217.557 121.846,205.763 117.955 C 202.448 116.861,196.989 116.948,193.766 118.147 M201.929 126.529 C 210.965 129.232,209.290 142.036,199.908 141.987 C 190.859 141.939,189.166 129.697,197.785 126.637 C 199.829 125.911,199.858 125.910,201.929 126.529 M186.998 199.368 C 186.547 200.012,183.709 201.556,173.402 206.763 C 165.167 210.924,165.841 210.749,163.779 209.259 C 158.823 205.678,152.661 207.210,152.103 212.162 C 151.835 214.540,151.897 214.517,147.833 213.727 C 131.110 210.473,120.078 231.031,132.167 242.918 C 141.981 252.568,157.094 248.216,161.404 234.500 C 162.069 232.384,162.324 232.108,163.020 232.752 C 166.867 236.312,173.083 231.343,172.744 224.977 L 172.600 222.269 177.800 218.735 C 180.660 216.791,183.720 214.830,184.600 214.378 C 187.892 212.688,187.873 212.723,188.359 207.092 C 189.062 198.954,188.705 196.931,186.998 199.368 M211.419 199.169 C 211.101 199.684,211.710 209.651,212.193 211.820 C 212.293 212.271,212.966 212.955,213.688 213.340 C 216.121 214.639,216.985 215.184,222.200 218.718 L 227.400 222.241 227.263 224.870 C 226.946 230.934,231.610 235.440,235.925 233.238 C 238.031 232.164,237.827 232.069,238.627 234.500 C 245.108 254.185,272.737 251.369,272.968 231.000 C 273.085 220.681,262.149 210.934,253.331 213.500 C 252.489 213.745,250.945 214.068,249.900 214.218 L 248.000 214.491 248.000 212.807 C 248.000 207.446,241.437 205.466,236.221 209.254 C 235.353 209.884,234.453 210.400,234.221 210.399 C 233.274 210.398,213.637 200.195,212.956 199.351 C 212.444 198.716,211.750 198.634,211.419 199.169 M148.200 223.749 C 152.263 226.072,153.549 231.729,150.804 235.195 C 145.986 241.278,136.800 238.390,136.800 230.792 C 136.800 224.553,142.955 220.751,148.200 223.749 M259.383 223.710 C 265.782 227.334,264.302 236.766,257.103 238.250 C 248.356 240.054,244.148 227.994,252.000 223.625 C 253.997 222.514,257.340 222.552,259.383 223.710 " stroke="none" fill="#ffffff" fill-rule="evenodd"></path></g></svg>